{
  "accessors": [
    {
      "bufferView": 1,
      "componentType": 5126,
      "count": 4,
      "max": [
        0.089199356734752655,
        1.2651259899139404,
        0.34012711048126221
      ],
      "min": [
        0.089199230074882507,
        0.98512548208236694,
        0.26012739539146423
      ],
      "type": "VEC3"
    },
    {
      "bufferView": 1,
      "byteOffset": 48,
      "componentType": 5126,
      "count": 4,
      "max": [
        -1,
        2.3049879871450685e-07,
        -6.5370250013074838e-07
      ],
      "min": [
        -1,
        2.3049879871450685e-07,
        -6.5370250013074838e-07
      ],
      "type": "VEC3"
    },
    {
      "bufferView": 0,
      "componentType": 5125,
      "count": 6,
      "max": [
        3
      ],
      "min": [
        0
      ],
      "type": "SCALAR"
    },
    {
      "bufferView": 1,
      "byteOffset": 96,
      "componentType": 5126,
      "count": 1039,
      "max": [
        5.3856887817382812,
        2.2004001140594482,
        2.7501280307769775
      ],
      "min": [
        0,
        0,
        0.14999990165233612
      ],
      "type": "VEC3"
    },
    {
      "bufferView": 1,
      "byteOffset": 12564,
      "componentType": 5126,
      "count": 1039,
      "max": [
        1,
        1,
        1
      ],
      "min": [
        -1,
        -1,
        -1
      ],
      "type": "VEC3"
    },
    {
      "bufferView": 0,
      "byteOffset": 24,
      "componentType": 5125,
      "count": 2619,
      "max": [
        1038
      ],
      "min": [
        0
      ],
      "type": "SCALAR"
    },
    {
      "bufferView": 1,
      "byteOffset": 25032,
      "componentType": 5126,
      "count": 1020,
      "max": [
        5,
        2.2003889083862305,
        2.7501280307769775
      ],
      "min": [
        0,
        5.3806347750651184e-06,
        0
      ],
      "type": "VEC3"
    },
    {
      "bufferView": 1,
      "byteOffset": 37272,
      "componentType": 5126,
      "count": 1020,
      "max": [
        1,
        1,
        1
      ],
      "min": [
        -1,
        -1,
        -1
      ],
      "type": "VEC3"
    },
    {
      "bufferView": 0,
      "byteOffset": 10500,
      "componentType": 5125,
      "count": 2889,
      "max": [
        1019
      ],
      "min": [
        0
      ],
      "type": "SCALAR"
    },
    {
      "bufferView": 1,
      "byteOffset": 49512,
      "componentType": 5126,
      "count": 591,
      "max": [
        5,
        2.200200080871582,
        2.7501280307769775
      ],
      "min": [
        0,
        0.00019999999494757503,
        6.2281120335683227e-05
      ],
      "type": "VEC3"
    },
    {
      "bufferView": 1,
      "byteOffset": 56604,
      "componentType": 5126,
      "count": 591,
      "max": [
        1,
        1,
        1
      ],
      "min": [
        -1,
        -1,
        -1
      ],
      "type": "VEC3"
    },
    {
      "bufferView": 0,
      "byteOffset": 22056,
      "componentType": 5125,
      "count": 1623,
      "max": [
        590
      ],
      "min": [
        0
      ],
      "type": "SCALAR"
    },
    {
      "bufferView": 1,
      "byteOffset": 63696,
      "componentType": 5126,
      "count": 143,
      "max": [
        4.9323000907897949,
        2.2003889083862305,
        2.7050070762634277
      ],
      "min": [
        0.099999159574508667,
        0.25020000338554382,
        0.15006229281425476
      ],
      "type": "VEC3"
    },
    {
      "bufferView": 1,
      "byteOffset": 65412,
      "componentType": 5126,
      "count": 143,
      "max": [
        1,
        1,
        1
      ],
      "min": [
        -1,
        -1,
        -1
      ],
      "type": "VEC3"
    },
    {
      "bufferView": 0,
      "byteOffset": 28548,
      "componentType": 5125,
      "count": 393,
      "max": [
        142
      ],
      "min": [
        0
      ],
      "type": "SCALAR"
    },
    {
      "bufferView": 1,
      "byteOffset": 67128,
      "componentType": 5126,
      "count": 355,
      "max": [
        5.3856887817382812,
        2.2004001140594482,
        2.5001280307769775
      ],
      "min": [
        1.1990410360017585e-14,
        1.6125690308399498e-05,
        0.1501179039478302
      ],
      "type": "VEC3"
    },
    {
      "bufferView": 1,
      "byteOffset": 71388,
      "componentType": 5126,
      "count": 355,
      "max": [
        1,
        1,
        1
      ],
      "min": [
        -1,
        -1,
        -1
      ],
      "type": "VEC3"
    },
    {
      "bufferView": 0,
      "byteOffset": 30120,
      "componentType": 5125,
      "count": 756,
      "max": [
        354
      ],
      "min": [
        0
      ],
      "type": "SCALAR"
    },
    {
      "bufferView": 1,
      "byteOffset": 75648,
      "componentType": 5126,
      "count": 100,
      "max": [
        5.3392210006713867,
        2.1503899097442627,
        2.3116800785064697
      ],
      "min": [
        0.60000002384185791,
        0.050200000405311584,
        0.64698362350463867
      ],
      "type": "VEC3"
    },
    {
      "bufferView": 1,
      "byteOffset": 76848,
      "componentType": 5126,
      "count": 100,
      "max": [
        0.98908060789108276,
        1,
        0.14737601578235626
      ],
      "min": [
        -9.9920072216264089e-15,
        -1,
        -1.4325460602306116e-16
      ],
      "type": "VEC3"
    },
    {
      "bufferView": 0,
      "byteOffset": 33144,
      "componentType": 5125,
      "count": 210,
      "max": [
        99
      ],
      "min": [
        0
      ],
      "type": "SCALAR"
    },
    {
      "bufferView": 1,
      "byteOffset": 78048,
      "componentType": 5126,
      "count": 2,
      "max": [
        0,
        -7.3301000595092773,
        4.8979620933532715
      ],
      "min": [
        -0.041099999099969864,
        -7.3301000595092773,
        4.8979620933532715
      ],
      "type": "VEC3"
    },
    {
      "bufferView": 0,
      "byteOffset": 33984,
      "componentType": 5125,
      "count": 2,
      "max": [
        1
      ],
      "min": [
        0
      ],
      "type": "SCALAR"
    }
  ],
  "asset": {
    "extras": {
      "author": "hobem353 (https://sketchfab.com/hobem353)",
      "license": "CC-BY-4.0 (http://creativecommons.org/licenses/by/4.0/)",
      "source": "https://sketchfab.com/models/d94bc13083a7460991d5ab3e3e3ef95a",
      "title": "Bus"
    },
    "generator": "Sketchfab-3.20.6",
    "version": "2.0"
  },
  "bufferViews": [
    {
      "buffer": 0,
      "byteLength": 33992,
      "byteOffset": 0,
      "name": "floatBufferViews",
      "target": 34963
    },
    {
      "buffer": 0,
      "byteLength": 78072,
      "byteOffset": 33992,
      "byteStride": 12,
      "name": "floatBufferViews",
      "target": 34962
    }
  ],
  "buffers": [
    {
      "byteLength": 112064,
      "uri": "scene.bin"
    }
  ],
  "materials": [
    {
      "doubleSided": false,
      "emissiveFactor": [
        0,
        0,
        0
      ],
      "name": "edge_color000255",
      "pbrMetallicRoughness": {
        "baseColorFactor": [
          1,
          1,
          1,
          1
        ],
        "metallicFactor": 0,
        "roughnessFactor": 0.59999999999999998
      }
    },
    {
      "doubleSided": false,
      "emissiveFactor": [
        0,
        0,
        0
      ],
      "name": "Color_I04",
      "pbrMetallicRoughness": {
        "baseColorFactor": [
          0.196078,
          0.196078,
          1,
          1
        ],
        "metallicFactor": 0,
        "roughnessFactor": 0.59999999999999998
      }
    },
    {
      "doubleSided": false,
      "emissiveFactor": [
        0,
        0,
        0
      ],
      "name": "Color_M05",
      "pbrMetallicRoughness": {
        "baseColorFactor": [
          0.44705899999999998,
          0.44705899999999998,
          0.44705899999999998,
          1
        ],
        "metallicFactor": 0,
        "roughnessFactor": 0.59999999999999998
      }
    },
    {
      "doubleSided": false,
      "emissiveFactor": [
        0,
        0,
        0
      ],
      "name": "Color_M03",
      "pbrMetallicRoughness": {
        "baseColorFactor": [
          0.66666700000000001,
          0.66666700000000001,
          0.66666700000000001,
          1
        ],
        "metallicFactor": 0,
        "roughnessFactor": 0.59999999999999998
      }
    },
    {
      "doubleSided": false,
      "emissiveFactor": [
        0,
        0,
        0
      ],
      "name": "material",
      "pbrMetallicRoughness": {
        "baseColorFactor": [
          1,
          1,
          1,
          1
        ],
        "metallicFactor": 0,
        "roughnessFactor": 0.59999999999999998
      }
    },
    {
      "doubleSided": false,
      "emissiveFactor": [
        0,
        0,
        0
      ],
      "name": "Color_I03",
      "pbrMetallicRoughness": {
        "baseColorFactor": [
          0.39607799999999999,
          0.39607799999999999,
          1,
          1
        ],
        "metallicFactor": 0,
        "roughnessFactor": 0.59999999999999998
      }
    },
    {
      "doubleSided": false,
      "emissiveFactor": [
        0,
        0,
        0
      ],
      "name": "Color_E03",
      "pbrMetallicRoughness": {
        "baseColorFactor": [
          1,
          1,
          0.39607799999999999,
          1
        ],
        "metallicFactor": 0,
        "roughnessFactor": 0.59999999999999998
      }
    },
    {
      "doubleSided": false,
      "emissiveFactor": [
        0,
        0,
        0
      ],
      "name": "Color_E04",
      "pbrMetallicRoughness": {
        "baseColorFactor": [
          1,
          1,
          0.196078,
          1
        ],
        "metallicFactor": 0,
        "roughnessFactor": 0.59999999999999998
      }
    }
  ],
  "meshes": [
    {
      "name": "Material3",
      "primitives": [
        {
          "attributes": {
            "NORMAL": 1,
            "POSITION": 0
          },
          "indices": 2,
          "material": 7,
          "mode": 4
        }
      ]
    },
    {
      "name": "Material2",
      "primitives": [
        {
          "attributes": {
            "NORMAL": 4,
            "POSITION": 3
          },
          "indices": 5,
          "material": 1,
          "mode": 4
        }
      ]
    },
    {
      "name": "Material2",
      "primitives": [
        {
          "attributes": {
            "NORMAL": 7,
            "POSITION": 6
          },
          "indices": 8,
          "material": 2,
          "mode": 4
        }
      ]
    },
    {
      "name": "Material2",
      "primitives": [
        {
          "attributes": {
            "NORMAL": 10,
            "POSITION": 9
          },
          "indices": 11,
          "material": 3,
          "mode": 4
        }
      ]
    },
    {
      "name": "Material3",
      "primitives": [
        {
          "attributes": {
            "NORMAL": 13,
            "POSITION": 12
          },
          "indices": 14,
          "material": 4,
          "mode": 4
        }
      ]
    },
    {
      "name": "Material2",
      "primitives": [
        {
          "attributes": {
            "NORMAL": 16,
            "POSITION": 15
          },
          "indices": 17,
          "material": 5,
          "mode": 4
        }
      ]
    },
    {
      "name": "Material3",
      "primitives": [
        {
          "attributes": {
            "NORMAL": 19,
            "POSITION": 18
          },
          "indices": 20,
          "material": 6,
          "mode": 4
        }
      ]
    },
    {
      "name": "Material2",
      "primitives": [
        {
          "attributes": {
            "POSITION": 21
          },
          "indices": 22,
          "material": 0,
          "mode": 1
        }
      ]
    }
  ],
  "nodes": [
    {
      "children": [
        1
      ],
      "name": "RootNode (gltf orientation matrix)",
      "rotation": [
        -0.70710678118654746,
        -0,
        -0,
        0.70710678118654757
      ]
    },
    {
      "children": [
        2
      ],
      "name": "RootNode (model correction matrix)"
    },
    {
      "children": [
        3
      ],
      "name": "Collada visual scene group"
    },
    {
      "children": [
        15,
        4,
        6
      ],
      "name": "SketchUp"
    },
    {
      "children": [
        5
      ],
      "matrix": [
        0.90283539999999995,
        0.42998639999999999,
        8.3266730000000005e-17,
        0,
        -0.27337250000000002,
        0.5739957,
        0.77187850000000002,
        0,
        0.3318972,
        -0.69687920000000003,
        0.6357701,
        0,
        8.6905789999999996,
        -11.826000000000001,
        11.651,
        1
      ],
      "name": "skp_camera_Last_Saved_SketchUp_View"
    },
    {
      "name": "ID1"
    },
    {
      "children": [
        7
      ],
      "matrix": [
        1,
        0,
        0,
        0,
        0,
        1,
        0,
        0,
        0,
        0,
        1,
        0,
        -0.10000000000000001,
        0,
        -0.25012839999999997,
        1
      ],
      "name": "instance_0"
    },
    {
      "children": [
        8,
        9,
        10,
        11,
        12,
        13,
        14
      ],
      "name": "Bus"
    },
    {
      "mesh": 0,
      "name": "Material3"
    },
    {
      "mesh": 1,
      "name": "Material2"
    },
    {
      "mesh": 2,
      "name": "Material2"
    },
    {
      "mesh": 3,
      "name": "Material2"
    },
    {
      "mesh": 4,
      "name": "Material3"
    },
    {
      "mesh": 5,
      "name": "Material2"
    },
    {
      "mesh": 6,
      "name": "Material3"
    },
    {
      "mesh": 7,
      "name": "Material2"
    }
  ],
  "scene": 0,
  "scenes": [
    {
      "name": "OSG_Scene",
      "nodes": [
        0
      ]
    }
  ]
}

