# Alias OBJ Model File
# Exported from SketchUp, (c) 2000-2012 Trimble Navigation Limited
# File units = inches

mtllib computer5.mtl

g Mesh1 Model

usemtl _2
v 0.45 0.25 -0.2
vt -0.2 -0.00849365
vn -0.866025 -0.5 7.01418e-15
v 0.35 0.423205 -0.2
vt -0.2 0.191506
v 0.35 0.423205 -0.255
vt -0.255 0.191506
v 0.45 0.25 -0.255
vt -0.255 -0.00849365
f 1/1/1 2/2/1 3/3/1 4/4/1 

usemtl _1
vt 0.45 0.25
vn 9.7483e-16 -4.88498e-15 1
v 0.45 0.5 -0.2
vt 0.45 0.5
vt 0.35 0.423205
f 1/5/2 5/6/2 2/7/2

v 0.5 -2.22045e-16 -0.2
vt 0.5 -1.19904e-15
f 1/5/2 6/8/2 5/6/2

v 0.35 0.0767949 -0.2
vt 0.35 0.0767949
f 7/9/2 6/8/2 1/5/2

v -8.88178e-16 0 -0.2
vt -6.93212e-16 -9.76996e-16
f 6/8/2 7/9/2 8/10/2

v 0.15 0.0767949 -0.2
vt 0.15 0.0767949
f 8/10/2 7/9/2 9/11/2

usemtl _2
vt 0.15 0.2
vn -7.77156e-15 1 1.8785e-28
vt 0.35 0.2
v 0.35 0.0767949 -0.255
vt 0.35 0.255
v 0.15 0.0767949 -0.255
vt 0.15 0.255
f 9/12/3 7/13/3 10/14/3 11/15/3 

vt -0.2 0.241506
vn -0.866025 0.5 -2.47464e-17
vt -0.2 0.441506
vt -0.255 0.441506
vt -0.255 0.241506
f 7/16/4 1/17/4 4/18/4 10/19/4 

usemtl _4
vn 5.92119e-15 2.187e-29 1
v 0.15 0.423205 -0.255
vt 0.15 0.423205
v 0.05 0.25 -0.255
vt 0.05 0.25
f 11/11/5 10/9/5 4/5/5 3/7/5 12/20/5 13/21/5 

usemtl _2
vt -0.35 0.2
vn -2.22045e-15 -1 7.16255e-29
v 0.15 0.423205 -0.2
vt -0.15 0.2
vt -0.15 0.255
vt -0.35 0.255
f 2/22/6 14/23/6 12/24/6 3/25/6 

usemtl _1
f 2/7/2 5/6/2 14/20/2

v 0.05 0.5 -0.2
vt 0.05 0.5
f 14/20/2 5/6/2 15/26/2

vt 0.45 0.2
vn -1.11022e-15 1 -6.78918e-33
v 0.45 0.5 -0.6494
vt 0.45 0.6494
v 0.05 0.5 -0.65
vt 0.05 0.65
vt 0.05 0.2
f 5/27/7 16/28/7 17/29/7 15/30/7 

vt 0.2 0.452742
vn 0.995037 0.0995037 -3.21744e-18
vt 0.2 -0.0497519
v 0.5 -2.22045e-16 -0.65
vt 0.65 -0.0497519
vt 0.6494 0.452742
f 5/31/8 6/32/8 18/33/8 16/34/8 

vt -0.5 0.2
vn -4.44089e-16 -1 -4.26082e-31
vt 8.88178e-16 0.2
v 8.88178e-16 0 -0.65
vt -8.88178e-16 0.65
vt -0.5 0.65
f 6/35/9 8/36/9 19/37/9 18/38/9 

vt -0.2 -1.08033e-16
vn -0.995037 0.0995037 -9.8282e-16
vt -0.2 0.502494
vt -0.65 0.502494
vt -0.65 2.44938e-17
f 8/39/10 15/40/10 17/41/10 19/42/10 

v 0.05 0.25 -0.2
f 8/10/2 20/21/2 15/26/2

f 20/21/2 8/10/2 9/11/2

usemtl _2
vt 0.2 0.191506
vn 0.866025 0.5 -5.59419e-14
vt 0.2 -0.00849365
vt 0.255 -0.00849365
vt 0.255 0.191506
f 20/43/11 9/44/11 11/45/11 13/46/11 

vt 0.2 0.441506
vn 0.866025 -0.5 -5.59419e-14
vt 0.2 0.241506
vt 0.255 0.241506
vt 0.255 0.441506
f 14/47/12 20/48/12 13/49/12 12/50/12 

usemtl _1
f 15/26/2 20/21/2 14/20/2

vt -0.44962 0.49961
vn 0.000585366 0.0006 -1
vt -0.499619 -0.000390175
vt 0.000380488 -0.00039
vt -0.0496195 0.49961
f 16/51/13 18/52/13 19/53/13 17/54/13 

g Mesh2 Model

v 0 0.03 -0
vt -1.33227e-17 1.47911e-31
vn 4.44089e-16 1 4.93038e-30
v 0.5 0.03 1.55431e-15
vt 0.5 -1.55431e-15
v 0.5 0.03 -0.1
vt 0.5 0.1
v 1.33227e-15 0.03 -0.1
vt 1.31894e-15 0.1
f 21/55/14 22/56/14 23/57/14 24/58/14 

v 0 0 -0
vt 0 0
vn -3.10862e-15 -6.81187e-43 1
v 0.5 -2.22045e-16 1.55431e-15
vt 0.5 -2.22045e-16
vt 0.5 0.03
vt 0 0.03
f 25/59/15 26/60/15 22/61/15 21/62/15 

v 0.5 -2.22045e-16 -0.1
v 1.33227e-15 0 -0.1
vt 1.33227e-15 0.1
f 25/59/14 26/56/14 27/57/14 28/63/14 

vt 2.88658e-15 -2.22045e-16
vn 1 0 8.88178e-15
vt 0.1 -2.22045e-16
vt 0.1 0.03
vt 2.88658e-15 0.03
f 26/64/16 27/65/16 23/66/16 22/67/16 

vt -0.5 -2.22045e-16
vn -2.66454e-15 -8.75812e-43 -1
vt -1.59872e-15 8.75812e-44
vt -1.59872e-15 0.03
vt -0.5 0.03
f 27/68/17 28/69/17 24/70/17 23/71/17 

vt -0.1 0
vn -1 0 -1.33227e-14
vt -0.1 0.03
f 28/72/18 25/59/18 21/62/18 24/73/18 

