# Alias OBJ Model File
# Exported from SketchUp, (c) 2000-2012 Trimble Navigation Limited
# File units = inches

mtllib computer2.mtl

g Mesh1 Model

usemtl _2
v 0.45 0.25 -0.2007
vt -0.2007 -0.00849365
vn -0.866025 -0.5 -3.50374e-14
v 0.35 0.423205 -0.2007
vt -0.2007 0.191506
v 0.35 0.423205 -0.2557
vt -0.2557 0.191506
v 0.45 0.25 -0.2557
vt -0.2557 -0.00849365
f 1/1/1 2/2/1 3/3/1 4/4/1 

usemtl _1
vt 0.45 0.25
vn 1.73303e-15 -5.32907e-15 1
v 0.5 0.5 -0.2007
vt 0.5 0.5
vt 0.35 0.423205
f 1/5/2 5/6/2 2/7/2

v 0.45 -9.4369e-16 -0.2007
vt 0.45 -2.01323e-15
f 1/5/2 6/8/2 5/6/2

v 0.35 0.0767949 -0.2007
vt 0.35 0.0767949
f 7/9/2 6/8/2 1/5/2

v 0.15 0.0767949 -0.2007
vt 0.15 0.0767949
f 6/8/2 7/9/2 8/10/2

usemtl _2
vt 0.15 0.2007
vn -2.66454e-14 1 -1.12309e-28
vt 0.35 0.2007
v 0.35 0.0767949 -0.2557
vt 0.35 0.2557
v 0.15 0.0767949 -0.2557
vt 0.15 0.2557
f 8/11/3 7/12/3 9/13/3 10/14/3 

vt -0.2007 0.241506
vn -0.866025 0.5 -2.79406e-14
vt -0.2007 0.441506
vt -0.2557 0.441506
vt -0.2557 0.241506
f 7/15/4 1/16/4 4/17/4 9/18/4 

usemtl _4
vn -2.96059e-15 -7.28258e-29 1
v 0.15 0.423205 -0.2557
vt 0.15 0.423205
v 0.05 0.25 -0.2557
vt 0.05 0.25
f 3/7/5 11/19/5 12/20/5 10/10/5 9/9/5 4/5/5 

usemtl _2
vt -0.35 0.2007
vn 1.77636e-14 -1 -2.03735e-30
v 0.15 0.423205 -0.2007
vt -0.15 0.2007
vt -0.15 0.2557
vt -0.35 0.2557
f 2/21/6 13/22/6 11/23/6 3/24/6 

usemtl _1
v 1.11022e-16 0.5 -0.2007
vt 4.58842e-16 0.5
f 14/25/2 13/19/2 2/7/2

v 0.05 0.25 -0.2007
f 14/25/2 15/20/2 13/19/2

v 0.05 -2.498e-15 -0.2007
vt 0.05 -3.56755e-15
f 16/26/2 15/20/2 14/25/2

f 15/20/2 16/26/2 8/10/2

f 8/10/2 16/26/2 6/8/2

vt -0.05 0.2007
vn 3.88578e-15 -1 -9.59674e-30
v 0.05 -2.498e-15 -0.6501
vt -0.05 0.6501
v 0.45 -9.4369e-16 -0.6507
vt -0.45 0.6507
vt -0.45 0.2007
f 16/27/7 17/28/7 18/29/7 6/30/7 

vt -0.2007 -0.00497519
vn -0.995037 -0.0995037 1.48017e-15
vt -0.2007 0.497519
v -2.55351e-15 0.5 -0.6507
vt -0.6507 0.497519
vt -0.6501 -0.00497519
f 16/31/8 14/32/8 19/33/8 17/34/8 

vt -3.88578e-15 0.6507
vn 2.66454e-15 1 2.55649e-30
vt -1.22125e-15 0.2007
vt 0.5 0.2007
v 0.5 0.5 -0.6507
vt 0.5 0.6507
f 19/35/9 14/36/9 5/37/9 20/38/9 

f 14/25/2 2/7/2 5/6/2

vt 0.2007 0.54727
vn 0.995037 -0.0995037 2.55721e-18
vt 0.2007 0.0447767
vt 0.6507 0.0447767
vt 0.6507 0.54727
f 5/39/10 6/40/10 18/41/10 20/42/10 

vt -0.0503805 0.000390042
vn -0.000585366 -0.0006 -1
vt -0.000380897 0.50039
vt -0.500381 0.50039
vt -0.450381 0.000390262
f 17/43/11 19/44/11 20/45/11 18/46/11 

usemtl _2
vt 0.2007 0.191506
vn 0.866025 0.5 -2.8036e-14
vt 0.2007 -0.00849365
vt 0.2557 -0.00849365
vt 0.2557 0.191506
f 15/47/12 8/48/12 10/49/12 12/50/12 

vt 0.2007 0.441506
vn 0.866025 -0.5 -3.85224e-14
vt 0.2007 0.241506
vt 0.2557 0.241506
vt 0.2557 0.441506
f 13/51/13 15/52/13 12/53/13 11/54/13 

g Mesh2 Model

usemtl _1
v 0.35 -1.38778e-15 -0.1007
vt -0.35 0.1007
vn 6.66134e-16 -1 -7.77156e-15
v 0.45 -2.498e-15 -0.0007
vt -0.45 0.0007
v 0.05 -2.498e-15 -0.0007
vt -0.05 0.0007
v 0.15 -2.05391e-15 -0.1007
vt -0.15 0.1007
f 21/55/14 22/56/14 23/57/14 24/58/14 

vt -0.317703 -1.41713e-14
vn 0.707107 3.66287e-14 -0.707107
vt -0.176282 -1.30611e-14
v 0.35 0.03 -0.1007
vt -0.176282 0.03
v 0.45 0.03 -0.0007
vt -0.317703 0.03
f 22/59/15 21/60/15 25/61/15 26/62/15 

vt -0.35 -4.3691e-15
vn -8.88178e-15 2.96059e-14 -1
vt -0.15 -5.03523e-15
v 0.15 0.03 -0.1007
vt -0.15 0.03
vt -0.35 0.03
f 21/63/16 24/64/16 27/65/16 25/66/16 

vt -0.177272 -2.05688e-15
vn -0.707107 -8.5183e-17 -0.707107
vt -0.0358503 -2.50097e-15
v 0.05 0.03 -0.0007
vt -0.0358503 0.03
vt -0.177272 0.03
f 24/67/17 23/68/17 28/69/17 27/70/17 

vt 0.45 0.03
vn -4.44089e-15 0 1
vt 0.05 0.03
vt 0.05 -2.498e-15
vt 0.45 -2.498e-15
f 26/71/18 28/72/18 23/73/18 22/74/18 

vt 0.45 0.0007
vn -6.66134e-16 1 7.77156e-15
vt 0.35 0.1007
vt 0.15 0.1007
vt 0.05 0.0007
f 26/75/19 25/76/19 27/77/19 28/78/19 

