{"accessors":[{"name":"Mesh1 Model_1_positions","componentType":5126,"count":60,"min":[-2.5535099920225447e-15,-2.497999899582471e-15,-0.6506999731063843],"max":[0.5,0.5,-0.20069999992847443],"type":"VEC3","bufferView":0,"byteOffset":0},{"name":"Mesh1 Model_1_normals","componentType":5126,"count":60,"min":[-0.9950370192527771,-1,-1],"max":[0.9950370192527771,1,1],"type":"VEC3","bufferView":0,"byteOffset":1008},{"name":"Mesh1 Model_1_texcoords","componentType":5126,"count":60,"min":[-0.6506999731063843,0.34929999709129333],"max":[0.6506999731063843,1.0084936618804932],"type":"VEC2","bufferView":1,"byteOffset":0},{"name":"Mesh1 Model_1_0_indices","componentType":5123,"count":36,"min":[0],"max":[59],"type":"SCALAR","bufferView":2,"byteOffset":0},{"name":"Mesh1 Model_1_1_indices","componentType":5123,"count":60,"min":[4],"max":[51],"type":"SCALAR","bufferView":2,"byteOffset":72},{"name":"Mesh1 Model_1_2_indices","componentType":5123,"count":12,"min":[18],"max":[23],"type":"SCALAR","bufferView":2,"byteOffset":192},{"name":"Mesh2 Model_1_positions","componentType":5126,"count":24,"min":[0.05000000074505806,-2.497999899582471e-15,-0.1006999984383583],"max":[0.44999998807907104,0.029999999329447746,-0.000699999975040555],"type":"VEC3","bufferView":0,"byteOffset":720},{"name":"Mesh2 Model_1_normals","componentType":5126,"count":24,"min":[-0.7071070075035095,-1,-1],"max":[0.7071070075035095,1,1],"type":"VEC3","bufferView":0,"byteOffset":1728},{"name":"Mesh2 Model_1_texcoords","componentType":5126,"count":24,"min":[-0.44999998807907104,0.8992999792098999],"max":[0.44999998807907104,1],"type":"VEC2","bufferView":1,"byteOffset":480},{"name":"Mesh2 Model_1_0_indices","componentType":5123,"count":36,"min":[0],"max":[23],"type":"SCALAR","bufferView":2,"byteOffset":216}],"asset":{"generator":"obj2gltf","version":"2.0"},"buffers":[{"name":"computer2","byteLength":2976,"uri":"data:application/octet-stream;base64,"}],"bufferViews":[{"name":"bufferView_0","buffer":0,"byteLength":2016,"byteOffset":0,"byteStride":12,"target":34962},{"name":"bufferView_1","buffer":0,"byteLength":672,"byteOffset":2016,"byteStride":8,"target":34962},{"name":"bufferView_2","buffer":0,"byteLength":288,"byteOffset":2688,"target":34963}],"materials":[{"name":"_2","pbrMetallicRoughness":{"baseColorFactor":[0.67451,0.729412,0.07451,1],"metallicFactor":0,"roughnessFactor":1},"emissiveFactor":[0,0,0],"alphaMode":"OPAQUE","doubleSided":false},{"name":"_1","pbrMetallicRoughness":{"baseColorFactor":[1,0.682353,0.447059,1],"metallicFactor":0,"roughnessFactor":1},"emissiveFactor":[0,0,0],"alphaMode":"OPAQUE","doubleSided":false},{"name":"_4","pbrMetallicRoughness":{"baseColorFactor":[1,0.960784,0.294118,1],"metallicFactor":0,"roughnessFactor":1},"emissiveFactor":[0,0,0],"alphaMode":"OPAQUE","doubleSided":false}],"meshes":[{"name":"Mesh1 Model_1","primitives":[{"attributes":{"POSITION":0,"NORMAL":1,"TEXCOORD_0":2},"indices":3,"material":0,"mode":4},{"attributes":{"POSITION":0,"NORMAL":1,"TEXCOORD_0":2},"indices":4,"material":1,"mode":4},{"attributes":{"POSITION":0,"NORMAL":1,"TEXCOORD_0":2},"indices":5,"material":2,"mode":4}]},{"name":"Mesh2 Model_1","primitives":[{"attributes":{"POSITION":6,"NORMAL":7,"TEXCOORD_0":8},"indices":9,"material":1,"mode":4}]}],"nodes":[{"name":"Mesh1 Model","mesh":0},{"name":"Mesh2 Model","mesh":1}],"scene":0,"scenes":[{"nodes":[0,1]}]}
