{"accessors":[{"name":"Mesh1 Model_1_positions","componentType":5126,"count":54,"min":[-1.5987199696140993e-14,0,-0.6499999761581421],"max":[0.5,0.5,-0.20000000298023224],"type":"VEC3","bufferView":0,"byteOffset":0},{"name":"Mesh1 Model_1_normals","componentType":5126,"count":54,"min":[-1,-1,-1],"max":[1,1,0.9756259918212891],"type":"VEC3","bufferView":0,"byteOffset":864},{"name":"Mesh1 Model_1_texcoords","componentType":5126,"count":54,"min":[-0.6496999859809875,0.3499999940395355],"max":[0.6499999761581421,1.24508798122406],"type":"VEC2","bufferView":1,"byteOffset":0},{"name":"Mesh1 Model_1_0_indices","componentType":5123,"count":66,"min":[0],"max":[53],"type":"SCALAR","bufferView":2,"byteOffset":0},{"name":"Mesh1 Model_1_1_indices","componentType":5123,"count":24,"min":[26],"max":[45],"type":"SCALAR","bufferView":2,"byteOffset":132},{"name":"Mesh1 Model_1_2_indices","componentType":5123,"count":6,"min":[38],"max":[41],"type":"SCALAR","bufferView":2,"byteOffset":180},{"name":"Mesh2 Model_1_positions","componentType":5126,"count":18,"min":[0,0,-0.10000000149011612],"max":[0.5,0.029999999329447746,0],"type":"VEC3","bufferView":0,"byteOffset":648},{"name":"Mesh2 Model_1_normals","componentType":5126,"count":18,"min":[-1,-1,-1],"max":[1,0.9578260183334351,0.2873480021953583],"type":"VEC3","bufferView":0,"byteOffset":1512},{"name":"Mesh2 Model_1_texcoords","componentType":5126,"count":18,"min":[-0.5,0.895596981048584],"max":[0.5,1],"type":"VEC2","bufferView":1,"byteOffset":432},{"name":"Mesh2 Model_1_0_indices","componentType":5123,"count":24,"min":[0],"max":[17],"type":"SCALAR","bufferView":2,"byteOffset":192}],"asset":{"generator":"obj2gltf","version":"2.0"},"buffers":[{"name":"computer3","byteLength":2544,"uri":"data:application/octet-stream;base64,"}],"bufferViews":[{"name":"bufferView_0","buffer":0,"byteLength":1728,"byteOffset":0,"byteStride":12,"target":34962},{"name":"bufferView_1","buffer":0,"byteLength":576,"byteOffset":1728,"byteStride":8,"target":34962},{"name":"bufferView_2","buffer":0,"byteLength":240,"byteOffset":2304,"target":34963}],"materials":[{"name":"_3","pbrMetallicRoughness":{"baseColorFactor":[0.141176,0.203922,0.054902,1],"metallicFactor":0,"roughnessFactor":1},"emissiveFactor":[0,0,0],"alphaMode":"OPAQUE","doubleSided":false},{"name":"_1","pbrMetallicRoughness":{"baseColorFactor":[1,0.682353,0.447059,1],"metallicFactor":0,"roughnessFactor":1},"emissiveFactor":[0,0,0],"alphaMode":"OPAQUE","doubleSided":false},{"name":"_4","pbrMetallicRoughness":{"baseColorFactor":[1,0.960784,0.294118,1],"metallicFactor":0,"roughnessFactor":1},"emissiveFactor":[0,0,0],"alphaMode":"OPAQUE","doubleSided":false}],"meshes":[{"name":"Mesh1 Model_1","primitives":[{"attributes":{"POSITION":0,"NORMAL":1,"TEXCOORD_0":2},"indices":3,"material":0,"mode":4},{"attributes":{"POSITION":0,"NORMAL":1,"TEXCOORD_0":2},"indices":4,"material":1,"mode":4},{"attributes":{"POSITION":0,"NORMAL":1,"TEXCOORD_0":2},"indices":5,"material":2,"mode":4}]},{"name":"Mesh2 Model_1","primitives":[{"attributes":{"POSITION":6,"NORMAL":7,"TEXCOORD_0":8},"indices":9,"material":0,"mode":4}]}],"nodes":[{"name":"Mesh1 Model","mesh":0},{"name":"Mesh2 Model","mesh":1}],"scene":0,"scenes":[{"nodes":[0,1]}]}
