{"accessors":[{"name":"Mesh1 Model_1_positions","componentType":5126,"count":72,"min":[1.149999976158142,-1.998399962017624e-15,-1.6464099884033203],"max":[1.9500000476837158,0.75,-0.9535899758338928],"type":"VEC3","bufferView":0,"byteOffset":0},{"name":"Mesh1 Model_1_normals","componentType":5126,"count":72,"min":[-0.8660249710083008,-1,-1],"max":[0.8660249710083008,1,1],"type":"VEC3","bufferView":0,"byteOffset":2880},{"name":"Mesh1 Model_1_texcoords","componentType":5126,"count":72,"min":[-2.100830078125,-0.6464099884033203],"max":[2.100830078125,1],"type":"VEC2","bufferView":1,"byteOffset":0},{"name":"Mesh1 Model_1_0_indices","componentType":5123,"count":78,"min":[0],"max":[71],"type":"SCALAR","bufferView":2,"byteOffset":0},{"name":"Mesh1 Model_1_1_indices","componentType":5123,"count":54,"min":[4],"max":[47],"type":"SCALAR","bufferView":2,"byteOffset":156},{"name":"Mesh2 Model_1_positions","componentType":5126,"count":48,"min":[1.41553001535322e-15,-1.7763600157738027e-15,-3],"max":[3,1,5.329070094684278e-15],"type":"VEC3","bufferView":0,"byteOffset":864},{"name":"Mesh2 Model_1_normals","componentType":5126,"count":48,"min":[-1,-1,-1],"max":[1,1,1],"type":"VEC3","bufferView":0,"byteOffset":3744},{"name":"Mesh2 Model_1_texcoords","componentType":5126,"count":48,"min":[-3,-2],"max":[3,1],"type":"VEC2","bufferView":1,"byteOffset":576},{"name":"Mesh2 Model_1_0_indices","componentType":5123,"count":48,"min":[8],"max":[47],"type":"SCALAR","bufferView":2,"byteOffset":264},{"name":"Mesh2 Model_1_1_indices","componentType":5123,"count":36,"min":[0],"max":[39],"type":"SCALAR","bufferView":2,"byteOffset":360},{"name":"Mesh3 Model_1_positions","componentType":5126,"count":120,"min":[0.550000011920929,-1.1102199541307227e-15,-2.799999952316284],"max":[2.549999952316284,0.75,-1.7999999523162842],"type":"VEC3","bufferView":0,"byteOffset":1440},{"name":"Mesh3 Model_1_normals","componentType":5126,"count":120,"min":[-1,-1,-1],"max":[1,1,1],"type":"VEC3","bufferView":0,"byteOffset":4320},{"name":"Mesh3 Model_1_texcoords","componentType":5126,"count":120,"min":[-2.700000047683716,-1.7999999523162842],"max":[3.2333600521087646,1],"type":"VEC2","bufferView":1,"byteOffset":960},{"name":"Mesh3 Model_1_0_indices","componentType":5123,"count":150,"min":[10],"max":[111],"type":"SCALAR","bufferView":2,"byteOffset":432},{"name":"Mesh3 Model_1_1_indices","componentType":5123,"count":18,"min":[0],"max":[79],"type":"SCALAR","bufferView":2,"byteOffset":732},{"name":"Mesh3 Model_1_2_indices","componentType":5123,"count":108,"min":[4],"max":[119],"type":"SCALAR","bufferView":2,"byteOffset":768}],"asset":{"generator":"obj2gltf","version":"2.0"},"buffers":[{"name":"SimplifiedDesk","byteLength":8664,"uri":"data:application/octet-stream;base64,"}],"bufferViews":[{"name":"bufferView_0","buffer":0,"byteLength":5760,"byteOffset":0,"byteStride":12,"target":34962},{"name":"bufferView_1","buffer":0,"byteLength":1920,"byteOffset":5760,"byteStride":8,"target":34962},{"name":"bufferView_2","buffer":0,"byteLength":984,"byteOffset":7680,"target":34963}],"materials":[{"name":"_3","pbrMetallicRoughness":{"baseColorFactor":[0.141176,0.203922,0.054902,1],"metallicFactor":0,"roughnessFactor":1},"emissiveFactor":[0,0,0],"alphaMode":"OPAQUE","doubleSided":false},{"name":"_2","pbrMetallicRoughness":{"baseColorFactor":[0.67451,0.729412,0.07451,1],"metallicFactor":0,"roughnessFactor":1},"emissiveFactor":[0,0,0],"alphaMode":"OPAQUE","doubleSided":false},{"name":"_4","pbrMetallicRoughness":{"baseColorFactor":[1,0.960784,0.294118,1],"metallicFactor":0,"roughnessFactor":1},"emissiveFactor":[0,0,0],"alphaMode":"OPAQUE","doubleSided":false}],"meshes":[{"name":"Mesh1 Model_1","primitives":[{"attributes":{"POSITION":0,"NORMAL":1,"TEXCOORD_0":2},"indices":3,"material":0,"mode":4},{"attributes":{"POSITION":0,"NORMAL":1,"TEXCOORD_0":2},"indices":4,"material":1,"mode":4}]},{"name":"Mesh2 Model_1","primitives":[{"attributes":{"POSITION":5,"NORMAL":6,"TEXCOORD_0":7},"indices":8,"material":0,"mode":4},{"attributes":{"POSITION":5,"NORMAL":6,"TEXCOORD_0":7},"indices":9,"material":1,"mode":4}]},{"name":"Mesh3 Model_1","primitives":[{"attributes":{"POSITION":10,"NORMAL":11,"TEXCOORD_0":12},"indices":13,"material":0,"mode":4},{"attributes":{"POSITION":10,"NORMAL":11,"TEXCOORD_0":12},"indices":14,"material":2,"mode":4},{"attributes":{"POSITION":10,"NORMAL":11,"TEXCOORD_0":12},"indices":15,"material":1,"mode":4}]}],"nodes":[{"name":"Mesh1 Model","mesh":0},{"name":"Mesh2 Model","mesh":1},{"name":"Mesh3 Model","mesh":2}],"scene":0,"scenes":[{"nodes":[0,1,2]}]}
